<svg width="1496" height="1762" viewBox="0 0 200 200" xmlns="http://www.w3.org/2000/svg" xmlns:xlink="http://www.w3.org/1999/xlink" xmlns:dc="http://purl.org/dc/elements/1.1/" xmlns:rdf="http://www.w3.org/1999/02/22-rdf-syntax-ns#"><defs><clipPath id="shield_235312849"><path d="M 10,40 h180 v120 h-180 v-120 Z"/></clipPath><clipPath id="division_235312849"><path d="m 0,115 v -15 c 8.9,-3.5 16,-3.1 25,0 8.9,3.5 16,3.1 25,0 8.9,-3.5 16,-3.2 25,0 8.9,3.5 16,3.2 25,0c 8.9,-3.5 16,-3.1 25,0 8.9,3.5 16,3.1 25,0 8.9,-3.5 16,-3.2 25,0 8.9,3.5 16,3.2 25,0 v 15 V200 H0 Z" transform="rotate(-90 100 100)"/></clipPath><style>.secondary {
      fill: var(--secondary);
    }
    .tertiary {
      fill: var(--tertiary);
    }
    .pseudostroke {
      fill: var(--stroke);
    }
    .background {
      display: var(--background);
    }</style><linearGradient id="luster" x1="0%" y1="100%" x2="95%" y2="10%">
            <stop stop-color="#000" stop-opacity=".3" offset="0"/>
            <stop stop-color="#ccc" stop-opacity="0" offset=".8"/>
            <stop stop-color="#fff" stop-opacity=".2" offset="1"/>
          </linearGradient><g id="goutte" author="Azgaar" license="https://creativecommons.org/publicdomain/zero/1.0">
    <path d="M100 134c17-1 16-19 10-25-1.9-1.8-4.6-5.3-3.9-8.1C108 94 102 90 102 87c-1-7 3-7 3-13-.1-6.2-3.3-8.7-6-12 1.2 3 2 6 1 9-1.5 5.9-6.2 6.9-8 11-2 5 3 11 3 15-.6 9.1-9 13-9 23 .3 11.3 9 14 14 14z"/>
  </g><style xmlns="http://www.w3.org/1999/xhtml" type="text/css"></style></defs>   <g clip-path="url(#shield_235312849)"><rect class="field" x="0" y="0" width="200" height="200" fill="#333333"/><g class="division" clip-path="url(#division_235312849)"><rect x="0" y="0" width="200" height="200" fill="#377cd7"/></g><g class="charge" i="0" charge="goutte" fill="#d7374a" transform="translate(-23 -40) rotate(-34 100 100)" stroke="#000" style="--secondary: #d7374a; --tertiary: #d7374a; --stroke: #000; --background: block;"><use xlink:href="#goutte" xmlns:xlink="http://www.w3.org/1999/xlink" transform="translate(48 48) scale(0.52)"/></g><g class="charge" i="1" charge="goutte" fill="#d7374a" transform="translate(-36 -11) rotate(-53 100 100)" stroke="#000" style="--secondary: #d7374a; --tertiary: #d7374a; --stroke: #000; --background: block;"><use xlink:href="#goutte" xmlns:xlink="http://www.w3.org/1999/xlink" transform="translate(48 48) scale(0.52)"/></g><g class="charge" i="2" charge="goutte" fill="#d7374a" transform="translate(-36 19) rotate(-78 100 100)" stroke="#000" style="--secondary: #d7374a; --tertiary: #d7374a; --stroke: #000; --background: block;"><use xlink:href="#goutte" xmlns:xlink="http://www.w3.org/1999/xlink" transform="translate(48 48) scale(0.52)"/></g><g class="charge" i="3" charge="goutte" fill="#d7374a" transform="translate(0 40) rotate(-177 100 100)" stroke="#000" style="--secondary: #d7374a; --tertiary: #d7374a; --stroke: #000; --background: block;"><use xlink:href="#goutte" xmlns:xlink="http://www.w3.org/1999/xlink" transform="translate(48 48) scale(0.52)"/></g><g class="charge" i="4" charge="goutte" fill="#d7374a" transform="translate(-36 46) rotate(-106 100 100)" stroke="#000" style="--secondary: #d7374a; --tertiary: #d7374a; --stroke: #000; --background: block;"><use xlink:href="#goutte" xmlns:xlink="http://www.w3.org/1999/xlink" transform="translate(48 48) scale(0.52)"/></g><g class="charge" i="5" charge="goutte" fill="#d7374a" transform="translate(34 46) rotate(-72 100 100)" stroke="#000" style="--secondary: #d7374a; --tertiary: #d7374a; --stroke: #000; --background: block;"><use xlink:href="#goutte" xmlns:xlink="http://www.w3.org/1999/xlink" transform="translate(48 152) scale(0.52 -0.52)"/></g><g class="charge" i="6" charge="goutte" fill="#d7374a" transform="translate(34 18) rotate(-104 100 100)" stroke="#000" style="--secondary: #d7374a; --tertiary: #d7374a; --stroke: #000; --background: block;"><use xlink:href="#goutte" xmlns:xlink="http://www.w3.org/1999/xlink" transform="translate(48 152) scale(0.52 -0.52)"/></g><g class="charge" i="7" charge="goutte" fill="#d7374a" transform="translate(34 -11) rotate(-119 100 100)" stroke="#000" style="--secondary: #d7374a; --tertiary: #d7374a; --stroke: #000; --background: block;"><use xlink:href="#goutte" xmlns:xlink="http://www.w3.org/1999/xlink" transform="translate(48 152) scale(0.52 -0.52)"/></g><g class="charge" i="8" charge="goutte" fill="#d7374a" transform="translate(27 -39) rotate(-134 100 100)" stroke="#000" style="--secondary: #d7374a; --tertiary: #d7374a; --stroke: #000; --background: block;"><use xlink:href="#goutte" xmlns:xlink="http://www.w3.org/1999/xlink" transform="translate(48 152) scale(0.52 -0.52)"/></g></g> <path class="grad" d="M 10,40 h180 v120 h-180 v-120 Z" fill="url(#luster)" stroke="#333333" stroke-width="1" style="pointer-events: none;"/>   </svg>